<svg xmlns="http://www.w3.org/2000/svg" width="1283" height="1285" fill="none" viewBox="0 0 1283 1285">
  <g clip-path="url(#a)">
    <path fill="#FF6738" d="M972.95 1283.5c-45.333 0-86.7-7.65-124.1-22.95-37.4-15.3-69.983-36.83-97.75-64.6-27.767-27.77-49.3-60.35-64.6-97.75-15.3-37.4-22.95-78.48-22.95-123.25 0-44.767 7.65-85.85 22.95-123.25 15.3-37.4 36.833-69.983 64.6-97.75 27.767-27.767 60.35-49.3 97.75-64.6 37.4-15.3 78.483-22.95 123.25-22.95 44.77 0 85.85 7.65 123.25 22.95 37.4 15.3 69.98 36.833 97.75 64.6 27.77 27.767 49.02 60.35 63.75 97.75 15.3 37.4 22.95 78.483 22.95 123.25 0 44.2-7.65 85.28-22.95 123.25-14.73 37.4-35.98 69.98-63.75 97.75-27.77 27.77-60.35 49.3-97.75 64.6-37.4 15.3-78.2 22.95-122.4 22.95Zm-.85-136c23.233 0 44.48-4.25 63.75-12.75 19.83-8.5 36.83-20.4 51-35.7 14.73-15.87 26.07-34.28 34-55.25s11.9-43.917 11.9-68.85c0-24.933-3.97-47.883-11.9-68.85-7.93-20.967-19.27-39.1-34-54.4-14.17-15.867-31.17-28.05-51-36.55-19.27-8.5-40.517-12.75-63.75-12.75-23.233 0-44.767 4.25-64.6 12.75-19.267 8.5-36.267 20.683-51 36.55-14.733 15.3-26.067 33.433-34 54.4-7.367 20.967-11.05 43.917-11.05 68.85 0 24.933 3.683 48.17 11.05 69.7 7.933 20.97 19.267 39.1 34 54.4 14.733 15.3 31.733 27.2 51 35.7 19.833 8.5 41.367 12.75 64.6 12.75ZM1 1285V691h128.615l215.77 352.16-92.231-.85L471.462 691H595v594H455.385v-184.99c0-50.91 1.128-96.74 3.384-137.467a1451.178 1451.178 0 0 1 13.539-121.346l16.077 44.126-164.154 255.417h-55.846l-160.77-253.72 16.077-45.823c6.205 37.903 10.436 76.937 12.693 117.103 2.82 39.6 4.23 86.84 4.23 141.71V1285H1Zm307.95-663.5c-45.333 0-86.7-7.65-124.1-22.95-37.4-15.3-69.983-36.833-97.75-64.6-27.767-27.767-49.3-60.35-64.6-97.75C7.2 398.8-.45 357.717-.45 312.95c0-44.767 7.65-85.85 22.95-123.25 15.3-37.4 36.833-69.983 64.6-97.75 27.767-27.767 60.35-49.3 97.75-64.6C222.25 12.05 263.333 4.4 308.1 4.4c44.767 0 85.85 7.65 123.25 22.95 37.4 15.3 69.983 36.833 97.75 64.6 27.767 27.767 49.017 60.35 63.75 97.75 15.3 37.4 22.95 78.483 22.95 123.25 0 44.2-7.65 85.283-22.95 123.25-14.733 37.4-35.983 69.983-63.75 97.75-27.767 27.767-60.35 49.3-97.75 64.6-37.4 15.3-78.2 22.95-122.4 22.95Zm-.85-136c23.233 0 44.483-4.25 63.75-12.75 19.833-8.5 36.833-20.4 51-35.7 14.733-15.867 26.067-34.283 34-55.25s11.9-43.917 11.9-68.85c0-24.933-3.967-47.883-11.9-68.85-7.933-20.967-19.267-39.1-34-54.4-14.167-15.867-31.167-28.05-51-36.55-19.267-8.5-40.517-12.75-63.75-12.75-23.233 0-44.767 4.25-64.6 12.75-19.267 8.5-36.267 20.683-51 36.55-14.733 15.3-26.067 33.433-34 54.4-7.367 20.967-11.05 43.917-11.05 68.85 0 24.933 3.683 48.167 11.05 69.7 7.933 20.967 19.267 39.1 34 54.4 14.733 15.3 31.733 27.2 51 35.7 19.833 8.5 41.367 12.75 64.6 12.75ZM1141.8 613V209.44h121.6V613h-121.6Zm60.8-483.36c-22.8 0-40.79-5.32-53.96-15.96-12.67-11.147-19-26.853-19-47.12 0-18.24 6.59-33.187 19.76-44.84 13.17-11.653 30.91-17.48 53.2-17.48 22.8 0 40.53 5.573 53.2 16.72 12.67 10.64 19 25.84 19 45.6 0 18.747-6.59 33.947-19.76 45.6C1151 222.5 1235 119 1202.6 129.64ZM688 617V4h129.087v481.643H1054V617H688Z"/>
  </g>
  <defs>
    <clipPath id="a">
      <path fill="#fff" d="M0 0h1283v1285H0z"/>
    </clipPath>
  </defs>
</svg>
